<?xml version="1.0" encoding="utf-8"?>
<!-- PromptPay / Thai QR mark — logo only, transparent background (white card removed). -->
<svg version="1.1" id="Layer_1" xmlns="http://www.w3.org/2000/svg" xmlns:xlink="http://www.w3.org/1999/xlink"
	 viewBox="146.46 53.93 453.84 383.41" xml:space="preserve">
<style type="text/css">
	.st1{fill:#1A3763;}
	.st2{fill:#53A69A;}
</style>
<path class="st1" d="M188.7,63.8c-10.9,3.5-20.9,10.4-27.2,20.1c-6.4,9.9-9.4,21.9-9,33.7c0,33.1,0,66.3,0,99.4
	c28.9,0,57.8,0,86.8,0v-47.5c-0.1-7.8,3.4-15.8,9.8-20.4c6.5-4.7,14.8-5.9,22.7-5.7c13.2,0,26.4,0,39.5,0c0.1-27.7,0-55.4,0-83
	c-29.9-0.1-59.9,0-89.8,0C210.5,59.2,199.2,60.3,188.7,63.8z"/>
<path class="st1" d="M369.8,60.3c-0.1,27.7,0,55.4,0,83.1c14,0,27.9,0,41.9,0c7.5,0,15.3,1.7,21.2,6.5c5.9,4.7,9,12.3,8.9,19.7
	c0,15.8-0.2,31.7-0.1,47.5c29,0,57.9,0,86.9,0V116c0.2-8-1.1-16.1-3.9-23.6c-3.9-10.6-12-19.6-22-24.7c-13.2-6.8-28.5-8.6-43.1-7.3
	C429.6,60.3,399.7,60.3,369.8,60.3L369.8,60.3z"/>
<path class="st1" d="M152.5,274.6c0,35,0,69.9,0,104.9c0.2,8.3,1.9,16.7,5.9,24.1c4.8,9,12.9,16,22.1,20.2
	c13.2,6.2,28.2,8.1,42.6,7.4c29.4,0,58.8,0,88.2,0c0-27.7,0-55.4,0-83c-14,0-27.9,0-41.9,0c-7.5,0-15.3-1.7-21.2-6.5
	c-5.9-4.7-9-12.3-8.9-19.7v-47.5C210.4,274.6,181.5,274.6,152.5,274.6L152.5,274.6z"/>
<path class="st2" d="M441.6,278.1c-0.1,14.9,0,29.9,0,44.8c0.2,6.4-1.4,13.1-5.8,17.9c-4.9,5.2-12.3,7.5-19.3,7.4
	c-16.1-0.1-32.3,0.1-48.4-0.1c-0.4,3.6-0.1,7.2-0.2,10.8c0,23.8,0.1,47.5,0,71.3c6.8,0.3,13.7,0,20.6,0.1
	c68.6,0,137.2,0.1,205.8-0.1c-29.5-29.6-59.2-59-88.7-88.6C484.2,320.5,463.2,298.9,441.6,278.1L441.6,278.1z"/>
</svg>
