<svg xmlns="http://www.w3.org/2000/svg" xmlns:xlink="http://www.w3.org/1999/xlink"
	 viewBox="0 0 343.1 395.1" style="enable-background:new 0 0 343.1 395.1;"><style type="text/css">
	.frame-color{fill:#000000;}
	.background-color{fill:#FFFFFF;}
	.text-color{fill:#FFFFFF;}
	.outline{fill:#E6E6E6;}
</style><path id="WhiteBackground" class="background-color" d="M328.4,1H76.7C69.1,1,63,7.2,63,14.7v251.7c0,7.6,6.2,13.7,13.7,13.7h251.6
	c7.6,0,13.7-6.2,13.8-13.7V14.7C342.1,7.1,335.9,1,328.4,1z"/><path id="Outline" class="outline" d="M328.3,281.1H76.7c-8.1,0-14.7-6.6-14.7-14.7V14.7C62,6.6,68.6,0,76.7,0h251.7
	c8.1,0,14.7,6.6,14.7,14.7v251.7C343,274.5,336.4,281.1,328.3,281.1z M76.7,2C69.7,2,64,7.7,64,14.7v251.7c0,7,5.7,12.7,12.7,12.7
	h251.6c7,0,12.7-5.7,12.8-12.7V14.7c0-7-5.7-12.7-12.7-12.7H76.7z"/><path id="CallToActionArrow" class="frame-color" d="M43.2,177.1L43.2,177.1
	c0.2-3.4,0.5-6.9,0.8-10.3c0.4-3.4,0.8-6.8,1.4-10.1c0.6-3.3,1.3-6.6,2.1-9.8c0.9-3.1,1.9-6.2,3.2-8.7l0,0c0.1-0.3,0.2-0.7,0.3-1.1
	c0.6-3.2-1.4-6.3-4.6-6.9l-0.3-0.1c-0.4-0.1-0.6-0.1-0.9-0.1c-0.3,0-0.5-0.1-0.8-0.1c-0.5,0-1-0.1-1.5-0.1c-1,0-2,0.1-3,0.1
	c-2,0.2-3.9,0.4-5.8,0.7c-3.8,0.6-7.6,1.4-11.2,2.4c-3.6,1.1-7.2,2.3-10.6,3.8c-1.7,0.7-3.4,1.6-5.1,2.3c-1.7,0.8-3.3,1.8-4.9,2.6
	c-0.5,0.3-0.8,0.8-0.6,1.4c0.2,0.7,0.8,1.1,1.5,0.9h0.1c1.8-0.4,3.5-0.9,5.2-1.3c1.8-0.4,3.5-0.8,5.2-1c3.5-0.7,7-1,10.5-1.2
	c2.2-0.1,4.5-0.1,6.7-0.1c-4.6,5.4-8.6,11.2-11.9,17.2c-4.5,8.1-8,16.6-10.8,25.3C2.7,200.3,0,218.4,0,236.5c0,18,2.7,36.1,8.3,53.2
	c5.7,17.1,14.3,33.1,25.6,47c0.5,0.6,1.4,0.8,2.1,0.3c0.7-0.5,0.8-1.5,0.3-2.1l0,0c-10.4-14-18.2-29.9-22.9-46.6s-6.5-34.2-5.8-51.4
	c0.7-17.3,4-34.4,9.9-50.5c3-8,6.6-15.8,11-23c2.8-4.6,5.9-8.9,9.4-12.8c0,2,0,3.9,0.1,5.9c0.2,3.6,0.4,7.1,0.8,10.6
	c0.4,3.5,0.8,7,1.4,10.5c0.1,0.7,0.7,1.3,1.5,1.4C42.4,178.7,43.2,178,43.2,177.1z"></path><g transform="rotate(-5) translate(-45 15)"></g></svg>