<svg xmlns="http://www.w3.org/2000/svg" xmlns:xlink="http://www.w3.org/1999/xlink"
	 viewBox="0 0 281.1 368.6" style="enable-background:new 0 0 281.1 368.6;"><style type="text/css">
	.frame-color{fill:#000000;}
	.background-color{fill:#FFFFFF;}
	.text-color{fill:#FFFFFF;}
	.outline{fill:#E6E6E6;}
	.outline-white{fill:#E6E6E6;}
	.shadow-35{opacity:0.35;fill:#FFFFFF;}
	.shadow-15{opacity:0.15;fill:#FFFFFF;}
	.show_on_white{opacity:0;}

</style><path id="FrameBody" class="frame-color" d="M268.7,368.6H12.4c-6.8,0-12.4-5.5-12.4-12.4v-64.7h115.8l22.9-17.2c1.1-0.8,2.6-0.8,3.7,0l22.9,17.2h115.8
	v64.7C281.1,363.1,275.6,368.6,268.7,368.6z"/><path id="WhiteBackground" class="background-color" d="M266.4,0H14.7C6.6,0,0,6.6,0,14.7v276.9h1h1h113.8l22.9-17.2c1.1-0.8,2.6-0.8,3.7,0
	l22.9,17.2h113.8h1h1V14.7C281.1,6.6,274.5,0,266.4,0z"/><path id="OutlineFrameBody" class="show_on_white outline-white" d="M140.6,275.7c0.2,0,0.5,0.1,0.6,0.2l22.9,17.2l0.5,0.4h0.7h113.8v62.7
	c0,2.8-1.1,5.4-3,7.4c-2,2-4.6,3-7.4,3H12.4c-5.7,0-10.4-4.7-10.4-10.4v-62.7h113.8h0.7l0.5-0.4l22.9-17.2
	C140.1,275.8,140.3,275.7,140.6,275.7 M140.6,273.7c-0.6,0-1.3,0.2-1.9,0.6l-22.9,17.2H0v64.7c0,6.9,5.6,12.4,12.4,12.4h256.3
	c6.9,0,12.4-5.5,12.4-12.4v-64.7H165.3l-22.9-17.2C141.9,273.9,141.2,273.7,140.6,273.7L140.6,273.7z"/><path id="Outline" class="outline" d="M0,291.6V14.7C0,6.6,6.6,0,14.7,0h251.7c8.1,0,14.7,6.6,14.7,14.7v276.9h-2V14.7
	c0-7-5.7-12.7-12.7-12.7H14.7C7.7,2,2,7.7,2,14.7v276.9H0z"/></svg>