<svg xmlns="http://www.w3.org/2000/svg" xmlns:xlink="http://www.w3.org/1999/xlink"
	 viewBox="0 0 279.1 355.1" style="enable-background:new 0 0 279.1 355.1;"><style type="text/css">
	.frame-color{fill:#000000;}
	.background-color{fill:#FFFFFF;}
	.text-color{fill:#FFFFFF;}
</style><path id="FrameBody" class="frame-color" d="M265.4,0H13.7C6.1,0,0,6.1,0,13.7v251.6c0,7.6,6.2,13.7,13.7,13.7h251.6c7.6,0,13.7-6.1,13.8-13.6V13.7
	C279.1,6.1,272.9,0,265.4,0z M268.5,261.1c0,4.1-3.3,7.4-7.4,7.4H17.9c-4.1,0-7.4-3.3-7.4-7.4V17.9c0-4.1,3.3-7.4,7.4-7.4h243.2
	c4.1,0,7.4,3.3,7.4,7.4V261.1z"/></svg>