<svg xmlns="http://www.w3.org/2000/svg" xmlns:xlink="http://www.w3.org/1999/xlink"
	 viewBox="0 0 279 401.2" style="enable-background:new 0 0 279 401.2;"><style type="text/css">
	.frame-color{fill:#000000;}
	.background-color{fill:#FFFFFF;}
	.text-color{fill:#FFFFFF;}
</style><path id="FrameBody" class="frame-color" d="M265.4,122.1H13.7c-7.6,0-13.7,6.2-13.7,13.7v251.7c0,7.6,6.2,13.7,13.7,13.7h251.6
	c7.6,0,13.7-6.2,13.8-13.7V135.8C279.1,128.2,272.9,122.1,265.4,122.1z M12.5,0h253.7c6.8,0,12.4,5.5,12.4,12.4v55.7
	c0,6.8-5.5,12.4-12.4,12.4h-37.9l-18.8,28.8c-1.2,1.2-3.2,1.2-4.4,0l-18.8-28.8H12.5c-6.8,0-12.4-5.5-12.4-12.4V12.4
	C0.1,5.5,5.6,0,12.5,0z M268.5,383.3c0,4.1-3.3,7.4-7.4,7.4H17.9c-4.1,0-7.4-3.3-7.4-7.4V140c0-4.1,3.3-7.4,7.4-7.4h243.2
	c4.1,0,7.4,3.3,7.4,7.4V383.3z"/></svg>