<svg xmlns="http://www.w3.org/2000/svg" xmlns:xlink="http://www.w3.org/1999/xlink"
	 viewBox="0 0 279.1 538.4" style="enable-background:new 0 0 279.1 538.4;"><style type="text/css">
	.frame-color{fill:#000000;}
	.background-color{fill:#FFFFFF;}
	.text-color{fill:#FFFFFF;}
	.shadow-15{opacity:0.15;fill:#000000;}
	.shadow-35{opacity:0.35;fill:#FFFFFF;}
	.hat-background{fill:#FFFFFF;}
</style><path id="HatBackground" class="hat-background" d="M60.6,143.8c0.3,0,0.6,0,0.9,0v47.9h156v-47.8c28,0.1,50.9-22.5,51-50.6s-22.5-50.9-50.6-51
	c-6.9,0-13.7,1.4-20,4c-18-32.3-58.7-43.9-91-25.9c-11,6.1-19.9,15.1-26,26c-25.8-11-55.7,0.9-66.7,26.7c-2.7,6.4-4.2,13.2-4.2,20
	C10.1,121,32.6,143.7,60.6,143.8z"/><path id="FrameBody" class="frame-color" d="M265.4,191.8h-35.8v-37c33.8-7.3,55.4-40.7,48.1-74.6c-7.3-33.8-40.7-55.4-74.6-48.1
	c-4.8-6.5-10.4-12-16.8-16.8C151.2-10.4,101.9-2.9,76.1,32.1c-34-7.4-67.3,14.2-74.6,48.1c-7.4,33.9,14.2,67.3,48.1,74.6v37H13.8
	c-7.6,0-13.7,6.2-13.8,13.7v319.2c0,7.6,6.2,13.7,13.7,13.7h251.7c7.6,0,13.7-6.2,13.7-13.7V205.5
	C279.1,197.9,272.9,191.8,265.4,191.8z M60.6,143.8c-27.9-0.1-50.5-22.9-50.5-50.7c0-6.9,1.4-13.7,4.2-20
	c11-25.8,40.9-37.8,66.7-26.7c6.1-10.8,15-19.8,25.9-25.9c32.3-18,73-6.4,91,25.9c6.4-2.6,13.2-4,20-4c28.1,0.1,50.7,22.9,50.6,51
	s-23,50.7-51,50.6v47.8h-156v-47.9C61.2,143.8,60.9,143.8,60.6,143.8z M268.6,453c0,4.1-3.3,7.4-7.4,7.4H18c-4.1,0-7.4-3.3-7.4-7.4
	V209.7c0-4.1,3.3-7.4,7.4-7.4h243.2c4.1,0,7.4,3.3,7.4,7.4V453z M98.9,172c-3,0-5.6-2.5-5.6-5.6V151c0-3,2.5-5.6,5.6-5.6
	s5.6,2.5,5.6,5.6v15.4C104.5,169.5,102,172,98.9,172z M139.4,172c-3,0-5.6-2.5-5.6-5.6V151c0-3,2.5-5.6,5.6-5.6s5.6,2.5,5.6,5.6
	v15.4C145,169.5,142.6,172,139.4,172z M180,172c-3,0-5.6-2.5-5.6-5.6V151c0-3,2.5-5.6,5.6-5.6s5.6,2.5,5.6,5.6v15.4
	C185.6,169.5,183.1,172,180,172z"/><path id="ShadowDarker" class="shadow-35" d="M217.5,181.2h12.1v10.6H49.5v-10.6h12v10.5h156V181.2z"/><rect id="ShadowDark" x="61.5" y="181.2" class="shadow-15" width="156" height="10.5"/></svg>