<svg xmlns="http://www.w3.org/2000/svg" xmlns:xlink="http://www.w3.org/1999/xlink"
	 viewBox="0 0 406.2 514.3" style="enable-background:new 0 0 406.2 514.3;"><style type="text/css">
	.frame-color{fill:#000000;}
	.background-color{fill:#FFFFFF;}
	.shadow-35{opacity:0.35;fill:#FFFFFF;}
</style><path id="FrameBody" class="frame-color" d="M406.2,174.4c-0.6-45.5-37.4-82.2-83-82.6h-13.6v0L44.4,91.9c-8-0.1-14.4,6.3-14.4,14.3v261.2
	c0,15.8,12.8,28.5,28.5,28.5H8.7c-4.8,0-8.7,3.9-8.7,8.7v0c0,18.8,15.2,34,34,34h285.4c18.8,0,34-15.2,34-34l0,0
	c0-4.8-3.9-8.7-8.7-8.7h-49.8c15.8,0,28.5-12.8,28.5-28.5l0-108.1h0.1C369.8,258.6,406.8,220.7,406.2,174.4z M323.4,112.7
	c34.7,0,62.8,28.2,62.8,62.8c0,34.7-28.2,62.8-62.8,62.8V112.7z M305.6,360.1c0,4.1-3.3,7.4-7.4,7.4H55c-4.1,0-7.4-3.3-7.4-7.4
	V116.9c0-4.1,3.3-7.4,7.4-7.4h243.2c4.1,0,7.4,3.3,7.4,7.4V360.1z M176.7,79.5c-4.9,0-8.8-3.9-8.8-8.8c0-2,0.7-3.9,1.9-5.5
	c0.9-1.1,8.4-11.5,0.4-20.2c-14.7-16.1-6.6-34.5-0.2-41.9c3.2-3.7,8.7-4.2,12.4-1s4.2,8.7,1,12.4l0,0c-1.4,1.7-7.8,10.4-0.2,18.6
	c14.6,16,6.6,35.1,0.4,43C181.9,78.3,179.4,79.5,176.7,79.5z M119.8,79.5c-4.9,0-8.8-3.9-8.8-8.8c0-2,0.7-3.9,1.9-5.5
	c0.8-1.1,8.4-11.5,0.4-20.2c-14.8-16.1-6.6-34.5-0.2-41.9c3.2-3.7,8.7-4.2,12.4-1s4.2,8.7,1,12.4l0,0c-1.4,1.7-7.8,10.4-0.2,18.6
	c14.6,16,6.6,35.1,0.4,43C125,78.3,122.4,79.5,119.8,79.5z M233.6,79.5c-4.9,0-8.8-3.9-8.8-8.8c0-2,0.7-3.9,1.9-5.5
	c0.8-1.1,8.4-11.5,0.4-20.2c-14.7-16.1-6.6-34.5-0.2-41.9c3.3-3.6,8.8-3.9,12.4-0.6c3.5,3.1,3.9,8.4,1,12.1
	c-1.4,1.7-7.8,10.4-0.2,18.6c14.6,16,6.6,35.1,0.4,43C238.8,78.2,236.3,79.5,233.6,79.5z"/><path id="ShadowDarker" class="shadow-35" d="M334,237.5v20.9c-3.4,0.5-6.9,0.8-10.4,0.8h-0.1l0-20.8C327,238.4,330.5,238.1,334,237.5z
	 M323.4,112.7c3.6,0,7.2,0.3,10.6,0.9v-21c-3.5-0.5-7-0.8-10.6-0.8V112.7z M317.1,385.3H36.4c5.2,6.5,13.2,10.6,22.2,10.6h236.3
	C303.8,395.9,311.8,391.8,317.1,385.3z"/></svg>