<svg xmlns="http://www.w3.org/2000/svg" xmlns:xlink="http://www.w3.org/1999/xlink"
	 viewBox="0 0 324.6 467.9" style="enable-background:new 0 0 324.6 467.9;"><style type="text/css">
	.frame-color{fill:#000000;}
	.background-color{fill:#FFFFFF;}
	.text-color{fill:#FFFFFF;}
	.shadow-35{opacity:0.35;fill:#FFFFFF;}
</style><path id="FrameBody" class="frame-color" d="M310.4,94h-73c73.5-25.8,65-43.8,65-43.8c-20.6-46-32.3-48-32.3-48C235.8-14.5,178,68.8,178,68.8v0.1
	c-4.6-2.7-9.9-4.3-15.7-4.3s-11.1,1.6-15.7,4.3v-0.1c0,0-57.8-83.3-92.1-66.6c0,0-11.8,2-32.3,48c0,0-8.5,18,65,43.8h-73
	C6.3,94,0,100.4,0,108.2v57.4c0,6.8,5.6,12.4,12.4,12.4h10.4v276.3c0,7.5,6.1,13.7,13.7,13.7h251.7c7.5,0,13.7-6.1,13.7-13.7V177.9
	h10.4c6.8,0,12.4-5.6,12.4-12.4v-57.4C324.6,100.4,318.2,94,310.4,94z M291.3,450c0,4.1-3.3,7.4-7.4,7.4H40.7
	c-4.1,0-7.4-3.3-7.4-7.4V206.8c0-4.1,3.3-7.4,7.4-7.4h243.2c4.1,0,7.4,3.3,7.4,7.4V450z"/><path id="ShadowDarker" class="shadow-35" d="M301.8,177.9v10.9h-279v-10.9H301.8z M112.2,94h19.5c-13.2-8.3-88-54.6-97-46.4
	C25.9,55.7,96.8,87.3,112.2,94z M192.9,94c13.2-8.3,88-54.6,97-46.4c8.8,8.1-62.1,39.7-77.4,46.4H192.9z M131.5,94
	c0.7-16.3,14.1-29.4,30.6-29.4s30,13.1,30.6,29.4H131.5z"/></svg>