<svg xmlns="http://www.w3.org/2000/svg" xmlns:xlink="http://www.w3.org/1999/xlink"
	 viewBox="0 0 337.1 437.9" style="enable-background:new 0 0 337.1 437.9;"><style type="text/css">
	.frame-color{fill:#000000;}
	.background-color{fill:#FFFFFF;}
	.text-color{fill:#FFFFFF;}
	.outline{fill:#E6E6E6;}
	.shadow-35{opacity:0.35;fill:#000000;}
	.shadow-15{opacity:0.15;fill:#000000;}
</style><path id="FrameBody" class="frame-color" d="M328.9,239.8L308,221.2v51.7l-104.8,51.5l-25.9-14.6c-5.5-3.1-12.1-3.1-17.6,0l-25.9,14.6L29.1,272.9v-51.7
	L8.2,239.8C3,244.7,0,251.5,0,258.6v166.7c0,6.9,5.6,12.6,12.6,12.6h311.9c6.9,0,12.6-5.6,12.6-12.6V258.6
	C337.1,251.5,334.1,244.7,328.9,239.8z"/><path id="WhiteBackground" class="background-color" d="M294.3,2H168.6H42.8c-7.5,0-13.7,7.5-13.7,16.7v254.2l104.8,51.5l25.9-14.6
	c5.5-3.1,12.1-3.1,17.6,0l25.9,14.6L308,272.9V18.7C308,9.5,301.8,2,294.3,2z"/><path id="Outline" class="outline" d="M29.1,221.2V18.7C29.1,9.5,35.3,2,42.8,2h125.8h125.8c7.5,0,13.7,7.5,13.7,16.7v202.5l2,1.8V18.7
	C310,8.4,303,0,294.3,0H168.6H42.8c-8.7,0-15.7,8.4-15.7,18.7V223L29.1,221.2z"/><path id="ShadowDarker" class="shadow-35" d="M29.1,267.8v5.1l-0.2-0.1L0,258.6h29.1V267.8z M308,267.8v5.1l0.2-0.1l28.9-14.2H308V267.8z"/><path id="ShadowDark" class="shadow-15" d="M308,258.6v-37.4l20.9,18.6c5.2,4.9,8.2,11.7,8.2,18.8l0,0H308z M29,258.6v-37.4L8.2,239.8
	C3,244.7,0,251.5,0,258.6H29z M308,267.8l-104.3,51.1l-25.3-14.4c-6.1-3.5-13.6-3.5-19.8,0l-25.3,14.4L29.1,267.8v5.1l99.3,48.9v0
	l0,0l-47.9,32.6l79.2-44.6c5.5-3.1,12.1-3.1,17.6,0l79.3,44.6l-47.9-32.6l99.3-48.9V267.8z"/></svg>