<svg xmlns="http://www.w3.org/2000/svg" xmlns:xlink="http://www.w3.org/1999/xlink"
	 viewBox="0 0 405.2 362.7" style="enable-background:new 0 0 405.2 362.7;"><style type="text/css">
	.frame-color{fill:#000000;}
	.background-color{fill:#FFFFFF;}
	.text-color{fill:#FFFFFF;}
	.outline{fill:#E6E6E6;}
	.shadow-35{opacity:0.35;fill:#FFFFFF;}
	.shadow-15{opacity:0.15;fill:#FFFFFF;}
</style><path id="FrameBody" class="frame-color" d="M404.7,317.4l-11-25c-2-4.4-2-9.4,0-13.8l10.9-25c1.7-3.9-1.1-8.2-5.4-8.2h-57.1v35.7H63.1v-35.7H6
	c-4.2,0-7.1,4.4-5.4,8.2l10.9,25c1.9,4.4,1.9,9.4,0,13.8l-11,25c-1.7,3.9,1.1,8.3,5.4,8.3h28.7v20.6c0,9.1,7.4,16.4,16.3,16.4h303.5
	c9,0,16.3-7.4,16.3-16.4v-20.6h28.7C403.7,325.7,406.4,321.3,404.7,317.4z"/><path id="WhiteBackground" class="background-color" d="M342.2,15.7C342.2,8.1,336,2,328.5,2H76.8c-7.6,0-13.7,6.2-13.7,13.7v265.4h279.1V15.7z"
	/><path id="ShadowDarker" class="shadow-35" d="M365,258c-0.7-0.4-22.8-12.6-22.8-12.6v32.1H63.1v-32.1c0,0-22.1,12.2-22.8,12.6
	c-3.5,2.2-5.8,6.2-5.9,10.6c0.1,6.9,5.7,12.5,12.6,12.5h1.6h10.5h4h279.1h3.9h10.6h1.6c7,0,12.5-5.6,12.6-12.5
	C370.8,264.2,368.5,260.2,365,258z"/><path id="ShadowDark" class="shadow-15" d="M399.4,325.7h-28.5v-57.1c-0.1-4.4-2.4-8.4-5.9-10.6c-0.7-0.4-22.8-12.6-22.8-12.6h57.1
	c4.3,0,7.1,4.3,5.4,8.2l-10.9,25c-2,4.4-2,9.4,0,13.8l11,25C406.4,321.3,403.7,325.7,399.4,325.7z M5.9,325.7h28.5v-57.1
	c0.1-4.4,2.4-8.4,5.9-10.6c0.7-0.4,22.8-12.6,22.8-12.6H6c-4.3,0-7.1,4.3-5.4,8.2l10.9,25c2,4.4,2,9.4,0,13.8l-11,25
	C-1.2,321.3,1.6,325.7,5.9,325.7z"/><path id="Outline" class="outline" d="M63.1,245.4V15.7C63.1,8.2,69.2,2,76.8,2h251.7c7.5,0,13.7,6.1,13.7,13.7v229.7h2V15.7c0-8.7-7-15.7-15.7-15.7
	H76.8c-8.7,0-15.7,7-15.7,15.7v229.7H63.1z"/></svg>