<svg xmlns="http://www.w3.org/2000/svg" xmlns:xlink="http://www.w3.org/1999/xlink"
	 viewBox="0 0 279 401.3" style="enable-background:new 0 0 279 401.3;"><style type="text/css">
	.frame-color{fill:#000000;}
	.background-color{fill:#FFFFFF;}
	.text-color{fill:#FFFFFF;}
</style><path id="FrameBody" class="frame-color" d="M13.7,279.1h251.7c7.6,0,13.7-6.2,13.7-13.7V13.7c0-7.6-6.2-13.7-13.7-13.7H13.8C6.2,0,0.1,6.2,0,13.7v251.7
	C0,273,6.2,279.1,13.7,279.1z M10.6,17.9c0-4.1,3.3-7.4,7.4-7.4h243.2c4.1,0,7.4,3.3,7.4,7.4v243.3c0,4.1-3.3,7.4-7.4,7.4H18
	c-4.1,0-7.4-3.3-7.4-7.4V17.9z M266.2,401.3H12.5c-6.8,0-12.4-5.5-12.4-12.4v-55.7c0-6.8,5.5-12.4,12.4-12.4h94.6
	c0.8,0,1.6-0.3,2.2-0.9l27.8-27.8c1.2-1.2,3.2-1.2,4.4,0l27.8,27.8c0.6,0.6,1.4,0.9,2.2,0.9h94.6c6.8,0,12.4,5.5,12.4,12.4v55.7
	C278.6,395.7,273,401.3,266.2,401.3z"/></svg>